<svg xmlns="http://www.w3.org/2000/svg" viewBox="0 0 32 32" width="32" height="32">
  <!-- Background -->
  <rect width="32" height="32" rx="6" fill="#3B82F6"/>
  
  <!-- Document -->
  <rect x="6" y="5" width="16" height="22" rx="1" fill="white"/>
  
  <!-- Lines representing text -->
  <rect x="8" y="8" width="8" height="1" rx="0.5" fill="#E5E7EB"/>
  <rect x="8" y="10" width="11" height="1" rx="0.5" fill="#E5E7EB"/>
  <rect x="8" y="12" width="9" height="1" rx="0.5" fill="#E5E7EB"/>
  
  <!-- Section divider -->
  <rect x="8" y="15" width="12" height="0.5" rx="0.25" fill="#D1D5DB"/>
  
  <!-- More text lines -->
  <rect x="8" y="17" width="6" height="1" rx="0.5" fill="#E5E7EB"/>
  <rect x="8" y="19" width="10" height="1" rx="0.5" fill="#E5E7EB"/>
  <rect x="8" y="21" width="9" height="1" rx="0.5" fill="#E5E7EB"/>
  <rect x="8" y="23" width="8" height="1" rx="0.5" fill="#E5E7EB"/>
  
  <!-- Accent element -->
  <rect x="24" y="8" width="4" height="11" rx="2" fill="#10B981"/>
  <rect x="25" y="10" width="2" height="0.5" rx="0.25" fill="white"/>
  <rect x="25" y="12" width="2" height="0.5" rx="0.25" fill="white"/>
  <rect x="25" y="14" width="2" height="0.5" rx="0.25" fill="white"/>
</svg>
